<?xml version="1.0" standalone="no"?>
<!DOCTYPE svg PUBLIC "-//W3C//DTD SVG 20010904//EN"
 "http://www.w3.org/TR/2001/REC-SVG-20010904/DTD/svg10.dtd">
<svg version="1.0" xmlns="http://www.w3.org/2000/svg"
 width="500.000000pt" height="500.000000pt" viewBox="0 0 500.000000 500.000000"
 preserveAspectRatio="xMidYMid meet">

<g transform="translate(0.000000,500.000000) scale(0.100000,-0.100000)"
fill="#000000" stroke="none">
<path d="M0 2500 l0 -2500 2500 0 2500 0 0 2500 0 2500 -2500 0 -2500 0 0
-2500z m2850 1930 c213 -38 447 -124 635 -235 516 -303 862 -811 950 -1393
107 -699 -166 -1394 -720 -1837 -447 -357 -1039 -498 -1610 -384 -683 137
-1258 648 -1470 1309 -76 239 -100 412 -92 684 4 153 11 216 32 316 109 521
407 960 850 1253 175 115 433 225 641 271 227 51 548 58 784 16z"/>
<path d="M2369 4339 c-583 -36 -1126 -364 -1441 -872 -287 -461 -352 -1028
-177 -1551 183 -550 625 -990 1170 -1165 235 -75 373 -95 623 -88 219 5 337
25 530 88 570 186 1015 643 1189 1220 49 162 68 281 74 465 15 437 -104 819
-364 1172 -304 413 -829 701 -1327 728 -55 3 -112 6 -126 8 -14 1 -82 -1 -151
-5z m-954 -1089 c3 -5 1 -10 -4 -10 -6 0 -11 5 -11 10 0 6 2 10 4 10 3 0 8 -4
11 -10z m131 -12 c-21 -12 -20 -28 1 -43 14 -10 15 -17 6 -36 l-12 -24 0 23
c-1 12 -5 22 -11 22 -13 0 -13 47 0 55 6 4 8 11 5 16 -3 5 1 6 11 2 15 -5 15
-7 0 -15z m154 12 c12 -8 9 -10 -13 -10 -16 0 -26 4 -22 10 8 12 16 12 35 0z
m-479 -17 c13 -16 12 -17 -3 -4 -17 13 -22 21 -14 21 2 0 10 -8 17 -17z m736
2 c0 -8 -4 -12 -9 -9 -5 3 -6 10 -3 15 9 13 12 11 12 -6z m1163 -30 c-8 -10
-8 -15 0 -20 8 -5 4 -12 -9 -22 -21 -14 -20 -40 1 -27 7 4 7 0 0 -13 -10 -18
-7 -18 40 5 36 17 53 21 61 13 8 -8 5 -11 -11 -11 -93 0 -192 -156 -132 -207
24 -21 26 -33 5 -33 -8 0 -22 11 -30 24 -17 26 -15 68 5 120 15 40 13 42 -15
12 -25 -27 -30 -46 -26 -99 3 -31 -14 -57 -35 -57 -8 0 -14 7 -14 15 0 19 -14
19 -28 2 -9 -10 -7 -19 4 -35 21 -30 41 -27 59 8 l16 30 30 -22 c26 -19 34
-21 60 -11 26 10 29 10 19 -3 -7 -8 -23 -14 -37 -14 -14 0 -21 -4 -18 -10 3
-5 1 -10 -6 -10 -7 0 -4 -7 7 -16 18 -14 18 -15 -4 -4 -13 6 -28 22 -34 35
-10 22 -11 22 -29 4 -10 -10 -26 -19 -34 -19 -10 0 -14 -9 -12 -29 1 -16 6
-27 10 -24 4 3 19 -2 32 -11 21 -14 24 -14 37 1 11 15 11 16 -4 10 -11 -4 -18
-2 -19 6 0 7 -2 20 -4 30 -2 9 1 17 6 17 6 0 9 -7 7 -16 -3 -17 6 -21 70 -31
26 -4 39 0 58 18 13 12 24 28 24 35 0 7 5 16 11 20 9 5 10 -1 5 -20 -4 -16 -2
-26 4 -26 6 0 8 5 5 10 -3 6 1 10 9 10 9 0 16 4 16 8 0 5 11 14 25 20 38 17
30 -2 -17 -42 -25 -22 -57 -39 -80 -43 -44 -6 -55 -18 -38 -38 18 -22 -8 -88
-32 -82 -22 6 -23 -2 -2 -18 12 -8 15 -20 10 -39 -4 -15 -11 -24 -16 -21 -18
11 -21 -20 -7 -56 9 -21 11 -42 6 -54 -13 -33 -10 -45 11 -45 17 0 20 -6 20
-37 0 -21 2 -57 6 -81 5 -33 2 -47 -11 -62 -15 -17 -16 -29 -9 -77 4 -32 8
-85 9 -118 0 -37 5 -63 13 -68 15 -10 16 -63 0 -73 -7 -5 -8 -3 -3 6 5 8 3 11
-6 8 -18 -6 -23 -70 -10 -111 l11 -32 -21 25 c-17 21 -20 22 -14 5 5 -16 4
-18 -6 -7 -7 6 -25 12 -40 12 -15 0 -33 7 -40 17 -13 15 -12 15 9 4 30 -16 72
-6 74 17 3 36 6 57 8 62 7 13 6 50 -1 50 -12 0 -31 -68 -24 -89 3 -11 0 -23
-6 -27 -14 -8 -42 25 -35 42 2 6 1 28 -4 47 -6 30 -5 35 9 30 13 -5 14 -3 4 8
-16 16 -17 33 -3 24 6 -4 22 1 36 10 21 14 25 23 22 62 -2 44 -21 76 -48 79
-6 1 -18 2 -27 3 -14 1 -13 5 7 16 23 12 24 14 6 21 -10 4 -27 2 -37 -4 -19
-12 -35 0 -24 18 17 28 105 -11 105 -46 0 -8 4 -13 9 -9 6 3 6 17 -1 36 -9 26
-7 35 13 62 38 53 26 127 -19 109 -9 -3 -13 -1 -9 4 3 5 -5 11 -19 12 -13 1
-24 -3 -24 -8 0 -6 8 -11 18 -11 16 -1 16 -2 0 -6 -11 -3 -18 -14 -18 -30 0
-26 6 -27 59 -12 23 7 24 -19 0 -31 -17 -9 -23 -9 -29 0 -5 9 -9 9 -14 1 -5
-7 -14 -4 -29 9 -33 31 -30 96 6 122 21 16 27 28 27 59 0 21 5 39 11 39 5 0 9
8 8 18 -5 31 12 84 25 79 7 -3 13 2 13 10 0 9 -7 13 -19 10 -18 -5 -20 1 -21
61 0 19 -4 22 -22 18 -19 -5 -22 -1 -23 26 -1 30 -18 52 -34 42 -9 -6 -12 3
-22 49 -4 15 -15 35 -26 45 -20 16 -28 38 -11 28 11 -7 23 22 14 36 -4 7 -1 8
7 3 8 -5 18 -1 27 10 12 18 19 10 14 -17 -2 -14 17 -8 23 7 6 17 -17 43 -51
56 -28 10 -22 29 10 29 44 0 51 18 7 18 -23 1 -45 3 -48 6 -3 3 7 6 22 6 17 0
25 4 20 11 -4 8 0 8 15 0 16 -9 21 -9 21 0 0 6 7 8 16 5 8 -3 12 -2 9 4 -3 6
-2 10 4 10 5 0 11 -5 13 -12 7 -19 30 3 25 23 -3 11 0 19 6 19 6 0 7 3 3 7 -4
5 -14 -1 -22 -11 -13 -19 -14 -19 -14 7 0 19 -5 27 -17 27 -15 0 -16 2 -3 10
22 14 27 13 51 -12 l22 -23 -7 30 c-4 19 -3 25 2 16 7 -10 13 -5 23 18 8 17
17 31 21 31 5 0 9 10 9 23 1 17 2 18 6 4 3 -10 0 -24 -7 -32z m97 23 c-3 -8
-6 -5 -6 6 -1 11 2 17 5 13 3 -3 4 -12 1 -19z m-2034 -5 c-3 -7 2 -13 11 -13
9 0 16 -4 16 -10 0 -10 -47 6 -67 24 -9 8 -5 11 16 11 19 0 27 -4 24 -12z
m104 -5 c-3 -8 -6 -5 -6 6 -1 11 2 17 5 13 3 -3 4 -12 1 -19z m43 -3 c-7 -9
-15 -13 -18 -10 -3 2 1 11 8 20 7 9 15 13 18 10 3 -2 -1 -11 -8 -20z m44 9 c3
-8 2 -12 -4 -9 -6 3 -10 10 -10 16 0 14 7 11 14 -7z m409 10 c12 -4 13 -12 6
-37 -11 -40 -11 -40 4 -31 9 5 9 4 0 -6 -9 -10 -17 -7 -39 15 -24 24 -24 26
-6 21 25 -8 38 10 22 29 -13 16 -10 18 13 9z m237 -3 c0 -6 -4 -12 -8 -15 -5
-3 -9 1 -9 9 0 8 4 15 9 15 4 0 8 -4 8 -9z m-516 -17 c8 -21 8 -24 -5 -24 -5
0 -7 5 -3 11 4 8 -1 9 -17 4 -21 -7 -22 -6 -10 9 17 20 27 20 35 0z m134 -18
c6 10 12 16 12 11 0 -4 -13 -26 -30 -49 -16 -22 -30 -48 -30 -56 0 -9 -3 -12
-7 -9 -9 10 -34 -14 -26 -26 4 -6 0 -8 -9 -4 -9 3 -21 0 -27 -6 -9 -9 -11 -8
-6 3 3 8 19 23 37 33 38 22 30 34 -12 17 -16 -7 -41 -10 -54 -8 -22 5 -24 2
-19 -28 5 -29 1 -35 -26 -52 -17 -10 -29 -21 -26 -23 2 -3 -7 -6 -20 -7 -32
-2 -49 28 -30 54 7 10 16 16 20 13 3 -4 -1 -14 -10 -23 -25 -24 -5 -19 24 6
14 13 20 16 14 8 -7 -8 -13 -18 -13 -22 0 -17 26 -6 43 17 16 22 16 28 3 58
l-14 34 29 -14 c56 -28 127 10 117 62 -6 28 1 32 21 13 11 -11 12 -8 7 12 -5
22 -4 21 8 -4 12 -27 14 -28 24 -10z m57 16 c-3 -3 -11 0 -18 7 -9 10 -8 11 6
5 10 -3 15 -9 12 -12z m152 -7 c-12 -13 -24 -20 -25 -14 -5 13 17 39 33 39 9
0 6 -9 -8 -25z m-582 5 c-3 -5 -12 -10 -18 -10 -7 0 -6 4 3 10 19 12 23 12 15
0z m683 -12 c15 -15 16 -38 1 -38 -5 0 -8 4 -4 9 3 5 -5 17 -17 25 -16 11 -18
16 -7 16 8 0 20 -5 27 -12z m254 -58 c35 -63 47 -120 24 -120 -10 0 -16 -8
-16 -21 0 -15 5 -19 15 -15 10 3 15 -1 16 -12 0 -12 3 -10 10 6 5 13 6 28 3
34 -4 6 1 6 13 -1 21 -11 31 -49 39 -148 3 -29 0 -54 -6 -58 -5 -3 -10 -21
-10 -38 0 -36 -13 -62 -32 -62 -7 0 -13 -14 -14 -34 -1 -25 -13 -45 -49 -81
-26 -26 -43 -50 -38 -52 4 -3 2 -3 -6 -1 -7 2 -20 -2 -27 -8 -8 -6 -14 -9 -14
-7 0 3 -19 2 -42 -2 -31 -6 -48 -4 -62 6 -24 16 -14 19 15 4 16 -9 24 -6 43
15 13 14 27 25 32 25 5 0 2 -5 -6 -10 -13 -8 -13 -10 1 -10 9 0 23 7 30 16 7
9 24 20 37 25 13 5 20 13 17 19 -3 5 0 10 8 10 8 0 21 8 30 18 16 18 16 19 -5
17 -13 -2 -22 -8 -20 -14 1 -7 -2 -9 -8 -6 -14 9 -80 -22 -81 -38 0 -7 -4 -2
-9 11 -5 12 -16 22 -23 22 -18 0 -39 -25 -29 -34 4 -4 0 -6 -8 -4 -9 2 -14 -3
-12 -12 2 -8 0 -12 -4 -8 -4 4 -13 3 -20 -3 -8 -7 -14 -7 -19 1 -3 5 -1 10 4
10 6 0 23 14 38 31 23 26 32 29 60 24 18 -3 40 -1 50 4 10 5 26 12 36 15 9 3
22 17 27 31 12 32 22 32 16 0 -3 -15 -1 -23 5 -20 13 8 42 66 32 64 -28 -5
-36 2 -18 14 13 10 15 16 6 21 -6 4 -9 11 -6 16 2 4 -9 13 -25 20 -27 11 -32
10 -50 -11 -21 -27 -28 -13 -7 15 9 12 26 18 49 18 47 0 58 -7 58 -40 1 -25 2
-25 12 -8 8 14 8 24 -1 39 -8 11 -8 16 -2 12 6 -3 11 -1 11 6 0 6 -8 9 -19 6
-14 -3 -17 0 -13 15 4 15 7 17 14 6 12 -18 38 17 37 51 0 26 0 26 -9 3 -5 -12
-17 -25 -25 -28 -18 -7 -58 24 -49 37 7 12 -1 11 -41 -5 -19 -8 -44 -30 -55
-48 -11 -18 -20 -28 -20 -21 0 23 61 82 91 88 33 8 63 -10 55 -32 -7 -16 6
-17 22 -1 18 18 15 51 -3 44 -9 -3 -18 1 -21 9 -8 20 -27 19 -76 -5 -23 -11
-48 -20 -55 -20 -9 0 -11 -5 -7 -12 5 -10 4 -10 -6 -2 -6 7 -9 21 -6 32 6 17
13 19 45 15 32 -4 41 -1 55 18 18 27 21 43 6 34 -7 -5 -8 3 -3 22 14 51 6 102
-22 139 -19 25 -22 32 -9 24 11 -7 31 -33 46 -60z m968 66 c0 -2 -8 -10 -17
-17 -16 -13 -17 -12 -4 4 13 16 21 21 21 13z m165 -6 c14 -6 1 -9 -45 -10 -41
0 -81 -8 -107 -20 -50 -22 -57 -18 -10 7 54 28 126 38 162 23z m-1298 -20 c-3
-12 1 -24 11 -30 15 -8 15 -9 -2 -10 -15 0 -17 -3 -8 -12 15 -15 43 7 40 31
-2 11 6 17 24 19 37 4 78 -51 77 -104 l-1 -39 -9 44 c-9 49 -33 81 -59 81 -12
0 -16 -7 -15 -25 2 -16 -2 -25 -11 -25 -8 0 -14 -8 -14 -17 -1 -17 -1 -17 -11
0 -6 9 -14 15 -19 12 -11 -7 -21 21 -14 40 4 9 0 15 -10 15 -9 0 -16 5 -16 11
0 6 7 9 15 5 9 -3 15 0 15 9 0 8 3 15 6 15 4 0 4 -9 1 -20z m-772 -30 c-4 -12
-9 -19 -12 -17 -3 3 -2 15 2 27 4 12 9 19 12 17 3 -3 2 -15 -2 -27z m727 5 c5
-21 3 -23 -10 -13 -13 11 -14 8 -10 -25 3 -30 1 -37 -13 -37 -9 0 -22 7 -29
15 -7 9 -20 15 -29 14 -9 -1 -27 1 -41 4 -45 11 -145 19 -138 11 5 -4 -6 -15
-22 -25 -20 -13 -30 -27 -30 -43 0 -31 -20 -76 -33 -76 -5 0 -5 6 2 13 14 17
24 90 11 82 -6 -4 -10 -19 -10 -35 0 -16 -4 -32 -10 -35 -18 -11 -49 -14 -55
-5 -3 5 -13 7 -23 4 -13 -4 -12 -3 2 7 14 9 21 9 24 1 2 -6 10 -8 18 -5 7 3
11 9 8 14 -3 5 1 9 9 9 9 0 17 13 19 30 5 33 -7 29 -15 -5 -3 -11 -5 -3 -6 18
0 21 5 51 13 66 13 24 22 28 60 29 32 2 48 -2 54 -13 5 -11 27 -17 65 -19 32
-2 64 -9 72 -16 16 -13 18 -9 18 31 0 9 5 16 12 16 13 0 14 -14 3 -32 -3 -6 4
-15 18 -22 21 -10 23 -9 14 7 -14 26 -13 30 10 30 11 0 23 7 26 15 8 21 11 19
16 -10z m-576 -2 c-3 -15 -12 -18 -53 -15 -40 2 -53 -2 -70 -20 -12 -13 -23
-32 -26 -43 -4 -16 -5 -14 -6 6 -2 42 30 73 75 73 22 0 47 -4 57 -8 13 -6 16
-5 11 8 -3 9 -2 16 4 16 6 0 9 -8 8 -17z m71 -9 c-3 -3 -12 -4 -19 -1 -8 3 -5
6 6 6 11 1 17 -2 13 -5z m1518 -24 c11 -17 -31 -48 -59 -43 -14 3 -26 9 -26
14 0 5 13 6 29 3 16 -4 32 -1 35 5 4 6 0 11 -11 11 -15 0 -16 2 -3 10 19 12
27 12 35 0z m-992 -32 c-4 -19 -2 -29 3 -25 5 3 10 -3 10 -14 0 -19 -1 -20
-14 -2 -7 10 -17 17 -21 16 -4 -1 -8 10 -8 26 0 19 6 27 18 28 15 1 17 -4 12
-29z m1487 20 c0 -6 -3 -8 -6 -5 -4 3 -16 1 -27 -5 -20 -10 -20 -11 4 -25 l24
-14 -24 7 c-14 3 -21 2 -18 -3 4 -5 0 -10 -8 -10 -12 0 -12 3 -2 16 9 12 9 13
0 7 -7 -4 -18 -17 -24 -28 -10 -18 -9 -20 5 -15 10 4 16 1 16 -8 0 -21 -14
-19 -35 5 -10 11 -15 20 -10 20 15 0 -19 32 -49 45 -41 18 -8 19 35 1 36 -14
55 -12 77 11 17 16 42 17 42 1z m136 -13 c10 -8 15 -14 9 -14 -5 0 -19 6 -29
14 -11 8 -15 15 -10 15 6 0 19 -7 30 -15z m-99 -12 c-23 -4 -26 -7 -16 -19 6
-8 7 -14 2 -14 -5 0 -16 9 -26 20 -16 20 -16 20 26 19 31 -2 34 -3 14 -6z
m-2266 -53 c5 0 13 8 17 18 9 22 28 26 36 6 3 -8 2 -12 -3 -9 -5 3 -12 1 -16
-5 -3 -5 2 -10 12 -11 16 0 16 -1 -2 -9 -12 -5 -14 -9 -6 -9 8 -1 12 -4 9 -7
-17 -16 -89 44 -88 73 1 4 8 -4 16 -19 8 -16 19 -28 25 -28z m1614 2 c17 -6
25 -11 18 -11 -6 -1 -9 -10 -6 -21 7 -27 -15 -54 -32 -40 -9 8 -15 8 -20 0 -4
-7 -12 -7 -26 0 -11 6 -19 7 -19 2 0 -15 -41 -22 -62 -11 -10 5 -18 15 -17 22
0 9 2 9 6 0 7 -20 51 -15 62 6 6 10 8 20 6 23 -3 3 1 5 8 6 6 0 21 2 31 4 13
2 24 -6 32 -20 7 -14 14 -19 18 -13 7 10 -13 51 -25 51 -4 0 -14 12 -23 28
-17 26 -17 27 1 6 10 -11 32 -26 48 -32z m855 -12 c15 9 30 4 30 -10 0 -4 -10
-6 -21 -3 -16 4 -20 2 -17 -8 3 -9 17 -13 41 -11 23 2 37 -1 37 -8 0 -6 5 -8
10 -5 6 3 10 1 10 -5 0 -6 -12 -15 -26 -20 -32 -12 -34 -12 -34 0 0 6 7 10 15
10 8 0 15 5 15 10 0 14 -43 13 -58 -2 -36 -36 9 -65 67 -42 43 17 87 16 84 -3
-1 -6 4 -17 12 -23 8 -7 15 -20 15 -29 0 -9 5 -22 12 -29 6 -6 11 -33 10 -59
-1 -26 2 -54 7 -62 5 -8 7 -20 4 -28 -4 -11 -9 -11 -22 -1 -9 7 -13 9 -9 4 9
-11 -42 -54 -81 -67 -21 -7 -35 -7 -48 0 -16 9 -15 10 9 11 52 0 128 94 128
157 0 33 -28 85 -42 77 -6 -4 -8 -3 -5 3 4 6 -5 19 -19 28 -21 14 -31 15 -51
6 -13 -6 -32 -11 -42 -11 -14 0 -17 -6 -14 -23 3 -14 -4 -32 -17 -47 -16 -19
-20 -20 -16 -7 8 26 -25 18 -34 -8 -13 -34 15 -84 56 -101 32 -14 38 -13 60 1
21 13 24 14 24 1 0 -9 -9 -20 -21 -26 -34 -19 -100 21 -160 96 -47 59 -84 86
-134 97 -14 3 -12 5 8 6 35 1 99 30 92 41 -3 5 0 12 6 15 18 12 27 49 18 75
-9 24 -9 24 6 5 25 -32 13 -84 -27 -117 -30 -24 -31 -28 -17 -40 9 -7 19 -20
22 -28 3 -8 6 -3 6 12 1 15 6 30 12 34 9 5 10 -1 5 -21 -6 -25 -5 -27 8 -16
21 17 21 7 0 -13 -8 -9 -11 -16 -5 -16 6 0 11 -6 11 -14 0 -8 6 -18 13 -22 6
-4 9 -4 5 0 -3 4 -2 21 4 38 9 24 15 29 34 25 15 -3 25 1 26 9 0 8 1 19 2 25
1 7 -15 12 -35 13 -28 1 -35 -2 -32 -14 4 -12 3 -12 -5 -1 -5 7 -7 23 -4 34 3
12 7 16 10 9 5 -16 32 -16 33 1 3 41 -4 84 -17 93 -8 6 -14 18 -14 26 0 8 -3
19 -7 24 -5 6 6 -5 22 -22 22 -23 35 -30 45 -24z m-1037 33 c-4 -11 -3 -14 5
-9 7 4 12 2 12 -4 0 -6 5 -8 10 -5 16 10 12 -11 -5 -25 -8 -7 -15 -9 -15 -5 0
4 -6 2 -14 -4 -7 -6 -20 -9 -29 -5 -8 3 -18 1 -22 -5 -3 -6 -12 -11 -18 -11
-22 1 26 30 49 30 25 0 41 16 22 22 -11 4 -5 38 6 38 3 0 2 -7 -1 -17z m-644
-10 c-12 -15 -12 -16 6 -9 16 6 18 5 8 -5 -10 -10 -16 -10 -25 -1 -10 10 -10
15 2 22 22 14 24 12 9 -7z m1304 10 c-7 -2 -21 -2 -30 0 -10 3 -4 5 12 5 17 0
24 -2 18 -5z m-1837 -79 c-5 -44 -3 -55 11 -63 10 -6 13 -11 6 -11 -6 0 -15 5
-18 10 -4 6 -14 1 -25 -12 -14 -17 -19 -19 -20 -8 0 8 -7 2 -15 -13 -8 -15
-12 -33 -10 -40 2 -7 7 -25 9 -41 8 -46 35 -68 77 -64 21 2 35 0 33 -4 -3 -5
-23 -8 -44 -8 -30 0 -43 6 -64 30 -31 37 -43 92 -27 126 8 19 8 23 0 18 -7 -4
-10 -1 -7 7 3 8 15 15 27 17 31 5 63 59 57 95 -4 19 -2 26 5 21 8 -4 9 -25 5
-60z m614 51 c0 -12 -19 -12 -23 0 -4 9 -1 12 9 8 7 -3 14 -7 14 -8z m647 -3
c-15 -9 -25 -23 -22 -30 3 -7 0 -10 -5 -7 -25 16 0 55 35 55 17 0 17 -3 -8
-18z m553 8 c19 -6 11 -8 -33 -9 -65 -1 -113 -18 -142 -50 -16 -19 -17 -26 -8
-52 16 -42 0 -85 -38 -98 -18 -6 -29 -6 -29 0 0 5 5 9 12 9 37 0 65 71 33 84
-19 7 -19 45 -1 69 31 41 144 67 206 47z m147 -4 c-28 -21 -14 -82 21 -94 26
-8 26 -9 4 -14 -12 -4 -20 -3 -17 1 2 4 -9 8 -24 8 -21 0 -28 -4 -24 -14 3 -8
12 -12 19 -9 7 3 16 1 19 -4 3 -5 -13 -6 -37 -3 -73 11 -162 8 -195 -7 -37
-16 -39 -15 -48 22 -6 23 -2 29 24 42 42 22 89 21 87 -1 -1 -14 6 -17 28 -16
16 1 38 -4 50 -12 27 -20 42 -19 22 1 -20 20 -20 33 0 41 10 4 22 -1 29 -11
11 -14 14 -14 18 -2 3 8 3 24 0 35 -6 22 12 51 31 51 6 0 3 -7 -7 -14z m-1317
0 c0 -2 -8 -10 -17 -17 -16 -13 -17 -12 -4 4 13 16 21 21 21 13z m1401 -40
c-7 -8 -19 -12 -27 -9 -22 8 -16 22 8 15 18 -4 20 -2 14 14 -6 15 -5 16 5 7
10 -10 10 -15 0 -27z m-1481 15 c0 -12 -20 -25 -27 -18 -7 7 6 27 18 27 5 0 9
-4 9 -9z m73 0 c11 7 17 6 17 0 0 -20 -38 -32 -60 -19 -27 17 -25 30 3 19 14
-5 30 -5 40 0z m-888 -11 c-3 -5 0 -10 7 -11 10 0 11 -2 0 -6 -10 -4 -10 -8
-1 -19 7 -8 9 -17 5 -21 -3 -3 -6 -1 -6 6 0 7 -5 9 -12 5 -7 -4 -8 -3 -4 4 4
7 1 12 -8 12 -8 0 -17 4 -20 9 -4 5 3 7 14 4 12 -3 20 -2 19 3 -2 14 0 24 7
24 3 0 2 -4 -1 -10z m2325 -25 c-7 -8 -18 -15 -24 -15 -6 0 -3 5 7 11 9 5 17
18 18 27 0 11 2 12 6 4 3 -7 -1 -19 -7 -27z m-2026 16 c4 -5 -3 -7 -14 -4 -23
6 -26 13 -6 13 8 0 17 -4 20 -9z m-247 -38 c-3 -10 -5 -4 -5 12 0 17 2 24 5
18 2 -7 2 -21 0 -30z m133 21 c0 -10 -6 -14 -14 -11 -21 8 -39 -18 -47 -66 -6
-42 -7 -42 -8 -7 0 19 8 50 19 68 21 34 50 43 50 16z m176 -9 c13 -20 14 -28
4 -40 -10 -12 -22 -97 -21 -150 0 -21 13 -71 23 -92 8 -17 8 -26 -1 -37 -8 -9
-10 -24 -5 -38 6 -20 5 -21 -10 -9 -9 7 -16 21 -16 30 0 13 -2 13 -9 2 -12
-18 7 -73 22 -65 7 3 4 -1 -5 -9 -10 -8 -15 -17 -11 -20 3 -4 1 -7 -5 -7 -7 0
-12 14 -12 30 0 35 -22 84 -53 118 -32 35 -41 26 -12 -13 34 -43 44 -107 21
-130 -9 -9 -16 -12 -16 -6 0 5 5 13 10 16 6 3 10 20 10 36 0 17 -4 28 -10 24
-5 -3 -7 0 -5 7 8 20 -48 69 -87 77 l-33 7 32 5 c19 3 30 1 26 -4 -3 -5 0 -7
8 -5 8 3 13 9 12 14 -1 5 19 7 43 5 35 -2 48 1 59 15 17 23 9 42 -18 46 -27 4
-25 35 5 61 11 9 17 17 14 17 -4 0 -2 9 4 21 9 15 8 24 -1 35 -9 11 -9 14 1
14 9 0 9 4 -1 16 -12 15 -14 14 -20 -7 -7 -23 -7 -23 -8 4 -1 30 14 35 39 12
16 -14 17 -14 13 9 -3 14 -13 27 -22 29 -14 4 -14 5 1 6 10 0 25 -10 34 -24z
m1038 10 c-7 -16 -24 -21 -24 -6 0 8 7 13 27 20 1 1 0 -6 -3 -14z m-44 -10 c0
-8 5 -15 12 -15 16 0 3 -11 -16 -14 -9 -1 -15 -4 -14 -7 3 -5 -24 -37 -32 -37
-22 1 -30 -4 -24 -14 5 -8 2 -9 -9 -5 -10 3 -17 2 -17 -3 0 -17 16 -19 43 -5
14 7 28 11 31 7 3 -3 6 -1 6 5 0 18 51 46 62 35 14 -14 -107 -75 -133 -67 -26
9 -25 56 2 81 l22 19 -13 -25 c-13 -24 -12 -24 22 5 19 17 33 32 32 34 -2 2
-10 -2 -19 -9 -8 -7 -15 -8 -15 -3 0 9 35 31 53 32 4 1 7 -6 7 -14z m-1262
-66 c-2 -21 0 -39 5 -39 4 0 3 -10 -4 -21 -6 -12 -9 -32 -6 -45 2 -13 1 -24
-3 -24 -5 0 -6 -8 -3 -18 2 -10 -4 -26 -15 -35 -19 -17 -20 -17 -25 3 -3 11
-1 18 4 14 10 -6 11 3 10 56 0 29 1 31 8 15 9 -19 10 -19 10 2 1 29 -15 38
-28 16 -15 -26 -13 -10 4 28 12 28 14 30 15 12 0 -13 3 -23 8 -23 4 0 5 23 4
50 -4 55 7 102 15 66 3 -10 3 -36 1 -57z m1472 42 c0 -16 -26 -31 -48 -26 -12
2 -24 0 -27 -6 -4 -5 -11 -9 -17 -9 -6 0 -8 3 -5 7 4 3 1 13 -6 21 -10 13 -8
14 15 9 15 -4 29 -4 32 1 6 11 56 14 56 3z m1125 -52 c14 -21 25 -46 25 -55 0
-10 3 -14 7 -11 11 11 43 -24 43 -48 0 -11 4 -25 9 -30 13 -15 24 -68 11 -60
-18 11 -11 -3 13 -25 12 -12 23 -35 24 -53 1 -18 8 -68 14 -112 13 -90 15
-147 6 -250 -12 -136 -19 -175 -31 -168 -6 4 -6 0 2 -9 7 -9 10 -27 6 -47 -5
-25 -9 -29 -20 -20 -11 9 -14 8 -14 -5 0 -9 5 -16 10 -16 15 0 12 -18 -9 -48
-11 -15 -27 -50 -36 -78 -11 -35 -25 -55 -45 -68 -25 -14 -29 -15 -24 -1 4 9
1 15 -8 15 -20 0 -38 -21 -38 -45 0 -30 -57 -72 -165 -124 -49 -23 -97 -47
-106 -51 -9 -4 -42 -11 -74 -15 -32 -4 -69 -13 -83 -21 -21 -11 -30 -10 -61 6
-29 15 -44 17 -76 10 -47 -11 -58 -4 -30 17 20 16 20 16 0 8 -11 -4 -27 -8
-35 -9 -8 -2 -13 -7 -10 -12 3 -5 8 -8 13 -7 4 2 7 -1 7 -6 0 -13 -70 -7 -79
7 -8 13 -31 15 -96 9 -19 -2 -38 4 -53 17 -20 18 -21 21 -7 43 14 21 14 23 -4
23 -10 0 -22 -7 -25 -16 -4 -9 -9 -14 -12 -11 -3 3 -17 2 -30 -3 -15 -6 -24
-6 -24 0 0 6 7 10 16 10 10 0 14 6 10 15 -3 8 -1 15 3 15 5 0 11 -6 14 -12 2
-7 9 3 14 22 5 19 16 35 24 35 10 0 13 11 11 40 -2 22 -9 46 -14 53 -7 8 -7
12 0 12 17 0 33 -36 25 -56 -5 -13 -3 -15 7 -9 10 6 12 1 7 -20 -6 -36 1 -59
17 -46 6 4 20 5 31 1 16 -6 14 -8 -12 -13 -22 -4 -32 -13 -35 -31 -7 -38 18
-55 80 -54 29 0 59 -5 66 -12 11 -8 16 -8 21 0 4 7 -2 14 -14 17 -12 3 -21 9
-21 14 0 12 17 11 25 -1 10 -16 43 -12 54 8 7 12 10 13 11 3 0 -11 4 -11 18 2
10 10 25 17 33 17 10 -1 9 -4 -4 -14 -16 -12 -16 -14 -1 -20 8 -3 26 -6 39 -6
13 0 31 -7 39 -16 12 -12 16 -12 16 -2 0 8 4 6 11 -5 8 -14 14 -15 30 -6 11 6
18 17 15 24 -3 10 8 13 44 13 26 1 64 8 84 16 20 8 43 13 50 10 8 -3 17 -1 21
5 3 7 0 8 -9 5 -9 -3 -2 9 15 27 64 68 73 143 22 176 -20 13 -29 14 -44 5 -15
-10 -19 -9 -19 2 0 8 9 17 20 21 41 13 90 -37 90 -93 0 -39 -13 -66 -48 -104
-19 -21 -22 -28 -10 -28 9 0 21 7 28 15 7 9 19 14 26 11 7 -3 16 0 20 6 4 7 3
8 -4 4 -7 -4 -12 -1 -12 8 0 8 5 18 12 22 7 5 8 3 3 -7 -5 -8 0 -7 12 4 11 9
23 14 27 10 4 -5 7 -3 6 2 -5 21 0 48 7 41 4 -4 15 8 25 26 l17 33 -1 -43 c-1
-23 2 -45 5 -49 4 -3 8 7 8 23 1 16 2 34 4 39 1 6 3 15 3 22 1 7 9 10 17 7 9
-4 15 -1 15 7 0 10 3 10 12 1 14 -14 32 -16 24 -3 -3 5 1 11 9 15 8 3 15 10
15 16 0 16 -41 12 -61 -6 -17 -15 -18 -15 -14 6 3 17 0 20 -12 16 -9 -4 -22 2
-32 13 -17 19 -17 19 -41 0 -14 -10 -22 -19 -17 -19 4 0 -1 -8 -10 -18 -17
-16 -19 -15 -47 15 -15 18 -32 30 -37 27 -5 -3 -9 -2 -8 3 1 4 -1 16 -5 26
-10 21 -1 47 16 47 9 0 10 -2 2 -8 -19 -12 2 -51 31 -58 31 -8 81 12 100 40
25 35 16 49 -11 17 -19 -24 -34 -31 -60 -31 -19 0 -34 5 -34 11 0 7 12 9 34 5
30 -6 37 -3 55 23 12 16 21 35 21 43 0 7 10 -3 21 -22 26 -42 47 -59 75 -60
26 0 56 31 37 37 -10 4 -10 10 -2 25 7 14 7 18 1 14 -7 -4 -9 1 -7 13 5 25
-33 40 -47 20 -8 -11 -9 -11 -5 1 2 8 -9 28 -25 45 -15 16 -28 34 -28 38 0 5
-5 5 -10 2 -7 -4 -9 6 -8 25 3 37 40 59 65 39 11 -10 17 -9 29 3 13 13 14 20
4 39 -13 24 -13 24 9 5 41 -37 23 -76 -35 -76 -13 0 -24 -4 -24 -10 0 -13 42
-35 63 -31 9 1 17 -3 17 -9 0 -6 4 -9 9 -6 4 3 8 -8 7 -24 -1 -27 -2 -29 -14
-13 -7 10 -19 17 -27 15 -7 -1 -16 2 -20 8 -9 15 -25 12 -19 -4 7 -18 44 -28
44 -13 0 7 6 1 13 -13 9 -16 20 -24 33 -22 10 2 27 4 37 5 23 2 22 14 -3 27
-27 14 -25 30 3 31 l22 0 -23 10 c-15 6 -21 13 -16 21 5 9 2 8 -10 -1 -13 -11
-20 -11 -29 -2 -8 8 -6 15 11 27 26 18 28 50 6 84 -16 24 -16 24 0 9 20 -18
41 -93 23 -82 -6 3 -7 1 -3 -6 13 -21 26 0 26 43 0 32 -6 48 -25 66 -31 29
-26 37 8 15 25 -16 25 -16 20 4 -3 12 -1 21 6 21 6 0 8 7 4 17 -4 10 -2 14 4
10 12 -8 27 38 18 53 -4 6 -2 10 3 10 5 0 6 16 2 38 -14 71 -15 72 -62 123
-35 38 -106 41 -138 7 -29 -32 -25 -42 8 -18 27 20 31 21 65 7 34 -15 65 -52
53 -64 -3 -3 -13 0 -21 7 -9 7 -15 9 -14 4 4 -22 -2 -64 -9 -64 -4 0 -6 18 -4
40 4 36 1 41 -24 50 -29 12 -54 7 -54 -10 0 -5 9 -10 20 -10 13 0 20 -7 20
-20 0 -11 0 -22 0 -25 0 -3 -3 -5 -6 -4 -4 0 -10 -5 -14 -11 -5 -8 -17 -8 -44
4 -20 8 -36 17 -36 19 0 3 20 2 45 -1 37 -4 45 -2 45 12 0 9 -8 16 -20 16 -26
0 -42 32 -31 63 8 22 7 24 -15 21 -21 -2 -24 1 -18 18 4 14 2 18 -5 14 -17
-11 -13 0 6 15 14 12 16 12 9 0 -6 -9 -5 -12 5 -9 8 3 13 10 12 15 -2 12 86 8
100 -6 6 -6 8 -14 4 -18 -4 -4 -13 -1 -19 5 -18 18 -53 14 -79 -8 l-24 -20 32
16 c28 13 38 13 68 2 31 -10 37 -10 45 2 6 8 10 10 10 5 0 -14 55 -46 64 -38
3 3 6 19 6 34 0 28 -34 48 -45 25 -3 -6 -3 -1 -1 11 2 13 0 26 -5 29 -5 3 -7
9 -4 14 3 4 -2 14 -11 21 -13 10 -19 10 -37 -1 -20 -12 -21 -12 -8 3 8 11 11
28 7 48 -4 19 -2 28 5 24 6 -4 8 3 4 19 -3 14 -7 37 -10 51 -3 14 -9 24 -14
22 -14 -4 -63 61 -49 66 18 6 26 0 53 -44z m-2658 19 c-3 -8 -6 -5 -6 6 -1 11
2 17 5 13 3 -3 4 -12 1 -19z m1563 12 c0 -5 -7 -10 -16 -10 -8 0 -12 5 -9 10
3 6 10 10 16 10 5 0 9 -4 9 -10z m-133 -6 c-3 -3 -12 -4 -19 -1 -8 3 -5 6 6 6
11 1 17 -2 13 -5z m-1452 -22 c-3 -3 -11 0 -18 7 -9 10 -8 11 6 5 10 -3 15 -9
12 -12z m256 0 c-7 -2 -18 1 -23 6 -8 8 -4 9 13 5 13 -4 18 -8 10 -11z m634
11 c-11 -3 -29 -12 -40 -22 -20 -16 -20 -16 -1 7 11 12 29 21 40 21 20 -1 20
-2 1 -6z m569 -9 c9 -3 16 -12 16 -20 0 -10 6 -8 20 6 26 26 100 26 100 -1 0
-4 -7 -5 -17 -2 -12 5 -14 3 -9 -8 5 -10 4 -10 -6 1 -19 22 -54 20 -50 -3 3
-16 -2 -18 -40 -12 -34 5 -53 1 -90 -18 -37 -19 -48 -21 -48 -10 0 8 4 12 9 9
5 -3 14 1 21 9 7 8 9 15 4 15 -5 0 0 7 10 15 11 8 25 15 30 15 6 -1 0 -8 -14
-16 -17 -10 -18 -13 -5 -9 11 4 28 10 38 13 15 4 16 7 5 13 -16 10 2 12 26 3z
m1111 -14 c-3 -4 2 -13 10 -20 8 -7 15 -17 15 -22 0 -5 -11 3 -24 19 -23 26
-26 50 -5 37 5 -3 7 -9 4 -14z m-2275 0 c0 -5 -7 -10 -15 -10 -8 0 -15 -5 -15
-12 0 -6 -3 -8 -7 -4 -5 4 1 14 11 22 23 17 26 17 26 4z m-289 -14 c5 3 9 0 9
-5 0 -6 -7 -11 -15 -11 -8 0 -15 8 -14 18 0 10 3 12 6 4 2 -6 9 -10 14 -6z
m811 -73 c7 -9 7 -13 0 -13 -12 0 -22 25 -21 48 1 13 3 12 6 -3 3 -11 10 -26
15 -32z m799 22 c13 4 19 2 19 -8 0 -23 -54 -5 -58 19 -3 18 -2 18 8 1 8 -12
18 -16 31 -12z m-27 -25 c25 0 27 -29 3 -40 -21 -11 -21 -11 -3 4 19 16 19 16
-3 16 -12 0 -20 4 -16 9 3 5 1 12 -5 16 -5 3 -10 12 -10 18 0 7 5 4 11 -5 5
-10 16 -18 23 -18z m-73 -9 c6 10 8 6 6 -10 -5 -35 -25 -38 -24 -4 0 15 2 22
5 14 4 -11 6 -11 13 0z m970 -14 c-10 -9 -11 -8 -5 6 3 10 9 15 12 12 3 -3 0
-11 -7 -18z m-833 -9 c-3 -24 19 -53 44 -60 11 -2 12 -10 3 -41 l-10 -37 -12
31 c-10 26 -10 29 3 19 29 -25 13 7 -21 38 -30 29 -33 36 -22 53 15 25 19 24
15 -3z m927 -21 c-9 -35 -42 -67 -68 -67 -19 1 -17 3 9 14 33 15 44 33 44 74
0 18 3 23 11 15 5 -5 7 -22 4 -36z m-1789 18 c4 -8 11 -12 18 -8 6 3 7 2 3 -2
-14 -16 -35 -13 -40 6 -6 22 11 26 19 4z m68 0 c-4 -8 -11 -15 -16 -15 -6 0
-5 6 2 15 7 8 14 15 16 15 2 0 1 -7 -2 -15z m-705 -21 c5 3 17 3 28 -1 13 -6
6 -9 -27 -13 -29 -3 -44 -10 -42 -17 1 -7 -2 -13 -8 -13 -5 0 -10 7 -10 15 0
8 5 15 10 15 6 0 10 4 10 10 0 5 -6 8 -12 6 -7 -1 -10 -1 -5 1 4 3 4 9 1 15
-4 5 5 2 19 -7 15 -9 30 -14 36 -11z m-4 16 c3 -5 1 -10 -4 -10 -6 0 -11 5
-11 10 0 6 2 10 4 10 3 0 8 -4 11 -10z m-145 -26 c0 -2 -7 -4 -15 -4 -8 0 -15
4 -15 10 0 5 7 7 15 4 8 -4 15 -8 15 -10z m890 -10 c0 -8 -5 -12 -10 -9 -6 4
-8 11 -5 16 9 14 15 11 15 -7z m628 2 c-7 -8 -15 -12 -17 -11 -5 6 10 25 20
25 5 0 4 -6 -3 -14z m-673 -24 c-3 -3 -11 0 -18 7 -9 10 -8 11 6 5 10 -3 15
-9 12 -12z m-768 -8 c-3 -3 -12 -4 -19 -1 -8 3 -5 6 6 6 11 1 17 -2 13 -5z
m803 -4 c0 -5 -5 -10 -11 -10 -5 0 -7 5 -4 10 3 6 8 10 11 10 2 0 4 -4 4 -10z
m737 -6 c-3 -4 3 -18 13 -32 11 -13 20 -30 20 -36 0 -6 -9 4 -20 22 -11 17
-27 32 -36 32 -20 0 -45 -25 -36 -35 4 -5 1 -5 -6 -1 -20 12 4 44 35 49 16 2
30 5 32 6 2 0 1 -2 -2 -5z m-1494 -17 c-4 -6 0 -8 10 -4 10 4 17 2 17 -4 0 -6
7 -8 16 -5 11 4 18 -1 21 -14 3 -11 9 -17 14 -14 5 3 9 -11 9 -30 0 -34 -19
-52 -21 -21 -1 8 -2 20 -3 26 -2 19 -53 52 -71 46 -13 -6 -14 -11 -5 -29 l11
-23 -20 23 c-26 30 -33 28 -27 -8 5 -34 -1 -40 -28 -31 -20 8 -32 41 -14 41 6
0 8 -7 4 -15 -3 -8 -1 -15 4 -15 6 0 10 13 10 30 0 28 29 57 44 43 3 -3 6 -2
6 4 0 5 7 10 15 10 8 0 11 -5 8 -10z m1584 -29 c-3 -8 -6 -5 -6 6 -1 11 2 17
5 13 3 -3 4 -12 1 -19z m-922 -8 c-3 -5 -11 -10 -16 -10 -6 0 -7 5 -4 10 3 6
11 10 16 10 6 0 7 -4 4 -10z m-780 -28 c-3 -3 -11 0 -18 7 -9 10 -8 11 6 5 10
-3 15 -9 12 -12z m155 8 c0 -5 -2 -10 -4 -10 -3 0 -8 5 -11 10 -3 6 -1 10 4
10 6 0 11 -4 11 -10z m2610 -11 c0 -14 -16 -11 -29 5 -10 12 -8 13 8 9 12 -3
21 -9 21 -14z m-1179 4 c0 -5 2 -16 4 -25 4 -22 3 -22 -41 1 l-36 19 29 5 c15
2 31 5 36 6 4 0 7 -2 8 -6z m91 -35 c-6 -6 -7 0 -4 19 5 21 7 23 10 9 2 -10 0
-22 -6 -28z m-1581 3 c-7 -5 -12 -11 -12 -15 4 -29 0 -39 -10 -29 -9 9 -8 18
5 38 10 15 20 24 24 20 4 -3 1 -10 -7 -14z m74 9 c3 -5 1 -10 -4 -10 -6 0 -11
5 -11 10 0 6 2 10 4 10 3 0 8 -4 11 -10z m255 -2 c0 -5 -8 -8 -18 -8 -10 0
-24 -6 -31 -12 -11 -10 -13 -10 -7 0 4 6 2 12 -3 12 -6 0 -11 3 -11 8 0 4 16
7 35 7 19 0 35 -3 35 -7z m158 -8 c8 -13 8 -20 1 -20 -5 0 -7 -4 -4 -10 3 -5
2 -10 -4 -10 -15 0 -26 23 -12 28 9 3 9 7 0 18 -6 8 -7 14 -3 14 5 0 15 -9 22
-20z m52 -10 c20 -19 25 -28 14 -24 -24 9 -54 34 -54 46 0 13 6 10 40 -22z
m-183 -17 c-1 -26 2 -37 11 -35 6 1 12 -2 12 -8 0 -17 -25 -11 -37 9 -9 15 -9
25 0 45 7 14 13 26 14 26 1 0 1 -17 0 -37z m43 33 c0 -2 -8 -10 -17 -17 -16
-13 -17 -12 -4 4 13 16 21 21 21 13z m37 -2 c-3 -3 -12 -4 -19 -1 -8 3 -5 6 6
6 11 1 17 -2 13 -5z m128 -12 c-3 -3 -11 0 -18 7 -9 10 -8 11 6 5 10 -3 15 -9
12 -12z m905 -14 c0 -6 -7 -5 -15 2 -8 7 -15 17 -15 22 0 6 7 5 15 -2 8 -7 15
-17 15 -22z m-1522 13 c6 0 12 -4 12 -9 0 -4 -20 -6 -45 -4 -25 2 -45 7 -45
11 0 6 32 7 78 2z m1582 0 c0 -5 -7 -12 -16 -15 -14 -5 -15 -4 -4 9 14 17 20
19 20 6z m-1453 -47 c-6 -25 -23 -59 -38 -75 -16 -17 -22 -30 -15 -33 8 -3 7
-5 -1 -5 -6 -1 -15 4 -18 9 -4 7 -12 7 -25 0 -13 -7 -21 -7 -25 0 -3 5 -12 10
-18 10 -7 0 -6 -4 3 -10 8 -5 12 -12 8 -15 -3 -3 -16 9 -29 27 -12 18 -16 27
-9 21 8 -7 31 -13 51 -13 47 0 95 44 105 95 3 19 10 35 14 35 4 0 2 -21 -3
-46z m1543 33 c0 -7 -7 -22 -15 -33 -13 -17 -13 -16 -3 14 13 34 18 40 18 19z
m-825 -7 c-3 -5 -1 -10 4 -10 6 0 11 -10 11 -22 0 -13 6 -34 13 -48 23 -45 26
-57 11 -57 -8 0 -14 9 -14 20 0 19 -1 19 -20 2 -22 -20 -50 -14 -50 10 0 10
-5 13 -12 9 -7 -5 -8 -3 -3 6 6 10 4 12 -8 7 -10 -3 -17 -2 -17 3 0 20 29 9
49 -17 20 -26 22 -27 35 -10 18 24 9 63 -23 89 -14 12 -18 18 -9 15 10 -3 20
-2 23 3 4 6 8 10 11 10 3 0 2 -4 -1 -10z m760 -10 c-10 -11 -26 -22 -37 -26
-13 -4 -16 -9 -10 -17 15 -19 24 -57 14 -57 -6 0 -12 10 -16 23 -7 31 -50 54
-69 38 -12 -9 -16 -8 -21 4 -3 8 -1 15 4 15 5 0 7 7 3 16 -5 14 -3 15 15 5 28
-15 72 -13 102 4 34 19 36 18 15 -5z m-1592 -30 c3 -13 1 -18 -6 -13 -6 4 -8
0 -4 -10 4 -11 2 -14 -9 -10 -12 4 -12 8 -2 20 10 12 9 18 -5 28 -9 6 -14 15
-10 18 9 10 30 -10 36 -33z m297 19 c0 -11 4 -18 9 -15 5 4 7 -3 4 -14 -4 -14
0 -20 11 -20 9 0 16 5 16 10 0 6 5 10 10 10 19 0 10 -21 -15 -32 -13 -6 -22
-15 -19 -20 10 -15 -17 -40 -31 -28 -9 8 -14 2 -19 -22 -3 -17 -2 -36 2 -40 5
-5 8 1 8 13 -1 12 4 24 10 26 7 2 10 -6 7 -22 -3 -14 -1 -25 6 -25 5 0 8 6 5
13 -8 21 13 65 38 78 27 15 128 21 128 7 0 -5 -5 -6 -11 -2 -6 3 -15 1 -19 -7
-7 -10 -12 -10 -23 0 -31 25 -113 -22 -89 -52 13 -16 -10 -57 -32 -57 -8 0
-17 -7 -20 -16 -9 -23 -7 -36 3 -29 17 10 21 -12 5 -26 -13 -10 -17 -10 -25 2
-5 8 -7 23 -5 33 3 10 1 15 -3 10 -19 -21 -21 -62 -3 -75 14 -11 15 -11 5 1
-18 20 -16 35 3 19 12 -10 20 -10 35 -1 21 13 26 3 7 -16 -7 -7 -12 -59 -14
-144 -2 -86 1 -125 6 -110 10 23 35 28 60 12 11 -7 8 -10 -16 -10 -28 0 -32
-4 -36 -30 -3 -17 -1 -33 4 -36 5 -3 7 -11 5 -17 -2 -7 3 -17 12 -24 13 -10
14 -15 4 -32 -16 -25 -17 -45 -3 -36 18 11 10 -29 -10 -55 -26 -33 -25 -40 4
-40 30 0 59 -27 51 -47 -4 -12 0 -14 15 -10 18 5 19 4 5 -16 -8 -12 -15 -28
-15 -37 0 -13 1 -13 10 0 6 9 10 10 10 3 0 -6 -7 -18 -15 -26 -8 -8 -11 -18
-7 -22 4 -5 1 -5 -5 -1 -7 4 -13 14 -13 22 0 15 -21 19 -34 7 -17 -18 -32 -9
-30 18 2 34 -8 37 -37 8 -12 -12 -19 -15 -17 -8 3 8 2 21 -3 29 -6 13 0 16 32
17 40 2 61 -13 38 -28 -11 -6 -10 -9 4 -15 9 -3 24 -1 31 5 11 9 15 9 19 -1 4
-9 6 -10 6 -1 1 7 -9 22 -21 33 -20 18 -20 20 -4 14 15 -6 17 -4 11 6 -5 9 -4
11 3 6 16 -10 15 2 -1 19 -9 8 -19 10 -28 4 -8 -5 -25 -8 -39 -8 -14 0 -19 3
-12 6 20 8 14 18 -13 19 -14 1 -23 -2 -20 -6 3 -5 -4 -6 -15 -3 -11 3 -27 0
-35 -7 -8 -6 -19 -9 -25 -5 -6 4 -10 3 -9 -2 1 -4 1 -15 0 -23 -1 -11 -4 -10
-13 4 -14 25 12 46 58 46 31 0 60 19 32 21 -7 0 -29 2 -47 4 -51 5 -84 -11
-78 -35 3 -11 1 -20 -4 -20 -5 0 -9 10 -9 21 0 12 -8 28 -17 35 -16 12 -16 12
5 7 18 -4 21 -2 16 11 -4 10 -13 14 -24 11 -10 -3 -23 2 -31 12 -13 16 -12 17
4 4 28 -22 45 1 23 33 -13 21 -25 26 -55 26 -46 0 -70 -22 -51 -45 10 -11 9
-18 -4 -30 -20 -20 -21 -49 -2 -64 15 -12 16 -55 2 -69 -4 -4 -6 4 -4 18 2 19
-4 29 -24 42 -31 20 -35 39 -13 58 8 7 12 16 9 21 -3 5 2 6 10 3 21 -8 20 5
-1 29 -10 11 -13 18 -7 14 6 -3 22 5 35 19 20 22 22 27 10 46 l-13 21 27 -21
c14 -11 32 -19 40 -16 7 3 16 1 20 -5 10 -17 28 -13 21 4 -3 8 -1 15 5 15 6 0
8 4 5 8 -3 5 2 19 10 31 13 19 18 20 32 9 13 -11 15 -11 7 2 -4 8 2 5 14 -7
12 -13 29 -23 38 -23 23 0 75 58 69 78 -14 52 -15 72 -6 72 5 0 9 3 8 8 -1 4
3 17 10 29 14 24 4 36 -18 22 -24 -14 -35 -10 -14 6 10 8 15 15 11 15 -5 0 -1
7 7 16 23 22 20 36 -12 67 -32 31 -79 37 -113 16 -22 -14 -26 -14 -43 4 -18
19 -17 19 14 12 25 -6 37 -2 57 17 15 12 23 16 18 8 -4 -8 9 1 29 21 25 24 44
57 61 105 13 38 24 60 24 50 1 -14 4 -17 11 -10 8 8 8 19 0 38 -7 20 -7 25 1
20 7 -4 10 -1 7 7 -3 8 -10 13 -16 12 -5 -1 -8 7 -5 17 7 26 23 26 23 -1z
m270 11 c12 -8 11 -10 -7 -10 -13 0 -23 5 -23 10 0 13 11 13 30 0z m74 4 c16
-6 12 -24 -5 -24 -6 0 -8 4 -5 9 4 5 0 12 -6 14 -7 3 -10 6 -6 6 3 1 13 -2 22
-5z m-694 -25 c0 -5 -7 -9 -15 -9 -9 0 -12 6 -9 15 6 15 24 11 24 -6z m755 7
c-20 -8 -25 -15 -17 -20 7 -4 10 -11 7 -16 -3 -5 -1 -11 5 -15 5 -3 10 0 10 8
0 8 7 17 15 21 21 8 19 1 -7 -30 -13 -14 -26 -34 -30 -44 -6 -16 -3 -18 26
-13 21 3 36 1 41 -7 6 -9 4 -11 -6 -5 -8 5 -10 4 -6 0 13 -15 36 -14 31 0 -4
9 1 12 15 8 20 -5 20 -5 0 -26 -15 -16 -22 -18 -31 -9 -7 7 -24 12 -39 12 -15
0 -32 7 -39 15 -7 8 -23 15 -36 15 -12 0 -26 5 -29 11 -4 6 -13 8 -21 5 -7 -3
-16 -1 -19 4 -4 6 -27 10 -52 10 l-46 0 27 21 c24 19 31 20 51 9 13 -7 28 -10
33 -6 5 3 13 -4 17 -17 l7 -22 7 25 c5 17 9 21 15 12 4 -6 4 -16 1 -22 -3 -5
-2 -10 4 -10 5 0 13 5 17 11 5 8 9 8 14 -1 5 -8 9 -5 13 9 3 12 1 18 -4 15 -5
-3 -12 2 -16 12 -7 19 29 54 56 54 9 -1 3 -7 -14 -14z m-479 -56 c1 -33 -3
-57 -7 -54 -5 3 -9 12 -9 21 0 12 -3 13 -14 3 -8 -6 -25 -10 -38 -8 l-23 4 25
11 c20 8 25 18 24 39 -1 25 11 40 36 43 3 1 6 -26 6 -59z m215 37 c-10 -9 -11
-8 -5 6 3 10 9 15 12 12 3 -3 0 -11 -7 -18z m169 19 c0 -2 -7 -7 -16 -10 -8
-3 -12 -2 -9 4 6 10 25 14 25 6z m339 -18 c13 -21 13 -22 -2 -10 -13 11 -16
10 -20 -5 -3 -10 -4 -6 -4 10 2 33 8 34 26 5z m1566 -1 c19 -4 19 -5 -1 -6
-12 0 -28 7 -35 17 -12 15 -12 16 1 6 8 -7 24 -14 35 -17z m-1992 -3 c-18 -9
-31 -20 -28 -24 3 -5 -4 -6 -15 -3 -11 3 -23 9 -26 14 -3 5 3 6 12 2 13 -5 15
-3 9 7 -6 10 -3 12 13 8 12 -4 25 -2 28 3 3 5 13 9 22 9 10 0 3 -7 -15 -16z
m384 0 c-3 -4 -2 -16 4 -28 10 -20 9 -20 -5 -2 -14 17 -13 36 1 36 4 0 3 -3 0
-6z m88 -13 c3 -5 0 -13 -6 -17 -7 -4 -9 -3 -5 4 3 5 0 13 -6 15 -9 4 -10 6
-1 6 6 1 14 -3 18 -8z m-737 -36 c-3 -3 -9 2 -12 12 -6 14 -5 15 5 6 7 -7 10
-15 7 -18z m1357 16 c3 -5 1 -12 -5 -16 -5 -3 -10 1 -10 9 0 18 6 21 15 7z
m-586 -30 c8 -15 6 -20 -14 -29 -22 -10 -24 -16 -19 -49 7 -47 -3 -41 -11 6
-4 22 -1 37 6 42 10 6 9 11 -2 25 -9 11 -9 15 -1 10 6 -4 12 -2 12 3 0 18 18
13 29 -8z m478 13 c-3 -3 1 -24 9 -47 l15 -41 -28 25 c-15 14 -36 29 -45 32
-10 4 -18 12 -18 18 0 7 10 5 26 -6 25 -16 26 -16 19 4 -5 16 -2 21 11 21 10
0 15 -3 11 -6z m1076 -34 c-11 -23 -12 -34 -4 -44 9 -11 6 -12 -15 -8 -34 6
-29 -17 7 -35 13 -7 18 -13 11 -13 -7 0 -22 5 -33 10 -23 13 -26 60 -4 60 9 0
15 9 15 24 0 22 10 33 32 35 3 1 0 -13 -9 -29z m-973 10 c0 -5 -4 -10 -9 -10
-6 0 -13 5 -16 10 -3 6 1 10 9 10 9 0 16 -4 16 -10z m-1673 -25 c-7 -13 -14
-20 -15 -14 -2 5 2 16 8 24 18 21 20 18 7 -10z m2589 13 c4 -7 3 -8 -5 -4 -6
4 -20 2 -29 -6 -15 -12 -16 -11 -3 5 16 20 27 22 37 5z m-1458 -23 c-3 -3 -9
2 -12 12 -6 14 -5 15 5 6 7 -7 10 -15 7 -18z m502 3 c0 -19 -2 -20 -10 -8 -13
19 -13 30 0 30 6 0 10 -10 10 -22z m-1450 2 c8 -5 11 -10 5 -10 -5 0 -17 5
-25 10 -8 5 -10 10 -5 10 6 0 17 -5 25 -10z m-150 -10 c0 -5 -5 -10 -11 -10
-5 0 -7 5 -4 10 3 6 8 10 11 10 2 0 4 -4 4 -10z m960 -16 c13 -14 12 -14 -14
0 -16 8 -34 12 -41 10 -7 -3 -16 0 -21 7 -11 18 56 3 76 -17z m126 12 c15 -16
18 -26 6 -26 -4 0 -13 9 -20 20 -14 23 -7 26 14 6z m1613 -20 c-7 -14 -21 -29
-33 -32 -21 -7 -21 -7 -1 -15 11 -4 15 -8 8 -8 -6 -1 -18 2 -27 5 -12 5 -7 14
22 42 20 21 38 36 40 36 1 -1 -3 -13 -9 -28z m-1212 2 c-3 -8 -6 -5 -6 6 -1
11 2 17 5 13 3 -3 4 -12 1 -19z m-1319 -29 c-3 -20 -5 -19 -9 9 -3 20 -2 29 4
23 5 -5 7 -19 5 -32z m834 -13 c-6 -12 -22 15 -22 39 0 17 2 17 14 -5 7 -14
11 -29 8 -34z m-861 2 c3 -20 2 -35 -3 -32 -4 3 -8 0 -8 -5 0 -6 -7 -11 -16
-11 -9 0 -12 -5 -8 -12 5 -7 3 -8 -5 -4 -7 5 -10 15 -7 23 4 9 1 23 -6 32 -7
9 -8 13 -4 9 11 -10 38 11 30 23 -3 5 -11 9 -17 9 -7 0 -6 -4 3 -10 13 -8 12
-10 -2 -10 -10 0 -18 4 -18 8 0 15 14 23 34 20 15 -2 22 -13 27 -40z m1501
-21 c8 -3 9 -6 1 -6 -13 -1 -53 46 -53 63 0 6 9 -3 19 -20 11 -18 25 -34 33
-37z m-775 31 c-3 -8 -6 -5 -6 6 -1 11 2 17 5 13 3 -3 4 -12 1 -19z m660 5 c3
-7 -4 -9 -16 -6 -12 3 -18 9 -15 15 7 11 26 6 31 -9z m-567 -8 c10 -12 6 -13
-27 -9 -21 2 -32 2 -25 -2 6 -3 12 -18 12 -32 -1 -25 -2 -25 -14 -9 -7 9 -22
17 -32 17 -10 0 -30 9 -44 20 -25 19 -25 19 -3 17 12 0 25 -7 27 -14 7 -18 36
-17 36 1 0 26 50 35 70 11z m120 -5 c-6 -11 -15 -18 -21 -15 -15 10 -11 23 9
28 9 3 18 5 20 6 1 0 -2 -8 -8 -19z m1468 -37 c-15 -19 -28 -16 -28 6 0 11 -5
23 -10 26 -6 4 -8 10 -5 15 3 5 16 -1 29 -13 18 -16 22 -25 14 -34z m-930 -1
c28 -9 48 -9 66 -2 14 5 26 6 26 2 -1 -19 -18 -31 -47 -30 -57 2 -87 -46 -38
-58 26 -6 26 -7 5 -21 -16 -11 -36 -13 -85 -8 -36 4 -68 11 -71 16 -3 5 2 6
11 3 9 -4 25 2 37 12 12 11 18 14 15 7 -10 -17 11 -27 28 -13 19 16 30 69 16
83 -9 9 -14 8 -22 -3 -8 -12 -9 -9 -5 10 3 14 6 32 6 40 1 10 4 8 10 -6 5 -12
24 -25 48 -32z m-472 -20 c4 -13 4 -42 1 -65 -3 -23 -3 -34 0 -24 2 9 9 15 14
12 14 -9 11 -45 -3 -45 -10 0 -10 -2 -1 -8 14 -9 8 -149 -7 -167 -5 -7 -7 -15
-4 -18 4 -3 4 -17 0 -31 -4 -18 -11 -24 -23 -19 -14 5 -15 1 -10 -25 7 -37 0
-65 -16 -55 -6 3 -7 1 -3 -5 10 -17 -66 -118 -128 -171 -30 -25 -78 -55 -108
-65 -58 -21 -179 -46 -190 -40 -9 6 2 44 13 44 5 0 9 7 9 15 0 13 5 12 28 -4
15 -11 38 -22 52 -25 18 -5 14 -1 -12 14 -21 11 -42 29 -48 41 -13 22 -6 54 9
45 10 -7 9 19 -1 29 -3 4 -22 2 -42 -3 -20 -6 -38 -7 -41 -2 -3 4 6 11 20 14
14 4 25 13 25 21 0 8 5 15 10 15 6 0 10 -5 10 -11 0 -5 4 -8 9 -5 5 3 11 -1
15 -9 3 -8 11 -13 18 -11 7 1 10 1 6 -1 -14 -8 -8 -46 9 -65 20 -22 1 -24 -21
-2 -14 14 -16 14 -16 0 0 -25 42 -45 95 -47 50 -1 113 16 101 28 -9 9 15 34
27 26 6 -3 7 -1 3 5 -5 8 -2 10 8 6 18 -7 22 11 4 22 -7 5 -8 3 -3 -6 6 -9 4
-11 -4 -6 -7 5 -21 0 -31 -9 -10 -9 -24 -14 -31 -9 -8 4 -10 3 -5 -4 4 -8 -3
-16 -19 -22 -32 -12 -85 -13 -85 -1 0 4 12 7 28 5 23 -4 23 -2 -7 9 -19 7 -37
19 -39 26 -3 9 3 8 19 -3 14 -9 38 -13 56 -11 42 5 114 42 135 69 19 23 24 99
9 139 -21 56 -121 68 -121 15 0 -17 -3 -19 -11 -11 -9 9 -8 18 5 37 25 39 85
37 120 -5 14 -17 27 -40 27 -52 1 -12 3 -32 4 -43 2 -20 -3 -37 -30 -109 -5
-13 1 -10 18 10 14 16 23 33 20 37 -2 5 1 8 6 8 6 0 11 5 11 11 0 5 -4 7 -10
4 -6 -3 -7 1 -4 10 6 14 8 14 20 -2 7 -10 14 -16 14 -13 1 3 3 14 6 25 7 33 7
92 0 104 -4 6 -17 9 -29 7 -28 -4 -57 20 -57 48 0 19 1 19 13 -4 17 -34 42
-33 42 2 1 15 3 30 7 33 11 11 52 14 64 4 15 -12 28 5 20 26 -3 8 -1 15 3 15
11 0 2 81 -12 98 -6 8 -6 12 1 12 12 0 21 56 11 67 -14 16 -14 48 0 59 12 10
12 14 -1 32 -8 12 -17 20 -20 17 -2 -3 -5 1 -5 9 0 22 46 -14 53 -42z m357 51
c-7 -2 -19 -2 -25 0 -7 3 -2 5 12 5 14 0 19 -2 13 -5z m-1440 -28 c4 -25 4
-25 -14 -9 -22 20 -24 34 -5 34 7 0 16 -11 19 -25z m-45 -16 c10 -15 11 -24 3
-32 -8 -8 -11 -5 -11 9 0 11 -5 25 -12 32 -7 7 -8 12 -2 12 5 0 15 -10 22 -21z
m-39 -23 c-1 -16 -2 -17 -6 -3 -2 9 -9 17 -14 17 -5 0 -9 4 -9 10 0 5 7 7 15
4 8 -4 14 -16 14 -28z m1034 12 c-4 -18 -2 -20 6 -8 13 19 24 8 24 -24 0 -14
3 -23 7 -21 14 9 40 -7 40 -24 0 -12 -2 -13 -8 -3 -5 7 -19 14 -31 17 -23 4
-23 4 -6 -15 10 -11 29 -20 42 -20 12 0 23 -4 23 -10 0 -9 -13 -14 -31 -12 -3
1 -4 -10 -1 -25 5 -25 4 -25 -17 -7 -11 10 -21 25 -21 34 0 9 -8 32 -18 51
l-18 35 -30 -33 c-17 -18 -28 -35 -25 -38 3 -4 -3 -3 -13 1 -17 6 -16 8 8 21
26 14 56 60 56 88 0 8 4 15 9 15 5 0 7 -10 4 -22z m-128 2 c3 -6 -1 -7 -9 -4
-18 7 -21 14 -7 14 6 0 13 -4 16 -10z m-813 -44 c7 4 8 2 4 -4 -12 -20 -34 -3
-28 21 l7 22 3 -23 c2 -13 8 -20 14 -16z m2555 9 c8 -23 0 -24 -19 -3 -15 15
-16 18 -3 18 9 0 18 -7 22 -15z m-1064 -10 c4 -8 3 -16 -1 -19 -4 -3 -9 4 -9
15 -2 23 3 25 10 4z m-1556 -17 c20 -16 60 -21 68 -8 3 5 13 10 22 10 9 0 -8
-19 -37 -42 l-53 -42 -23 28 c-24 27 -32 52 -14 41 6 -3 10 -1 10 4 0 6 -7 11
-15 11 -8 0 -15 4 -15 9 0 13 38 5 57 -11z m241 6 c12 -8 22 -26 22 -39 0 -24
-16 -42 -28 -30 -3 3 0 10 8 15 19 12 4 39 -31 57 -14 8 -18 13 -9 13 9 0 26
-7 38 -16z m770 -46 c13 -13 15 -92 2 -123 -4 -12 -6 6 -3 42 5 52 3 64 -11
69 -9 3 -16 10 -16 15 0 13 14 11 28 -3z m686 -19 c26 -31 35 -82 16 -94 -6
-4 -10 10 -10 35 0 30 -6 47 -25 65 -13 14 -20 25 -15 25 4 0 20 -14 34 -31z
m-1510 12 c4 -1 6 -8 2 -16 -3 -8 2 -21 10 -30 14 -13 13 -15 -10 -15 -24 0
-32 13 -27 43 1 5 -4 7 -11 5 -7 -3 -13 -11 -13 -19 0 -9 -9 -13 -28 -11 -19
2 -27 -1 -27 -12 0 -9 -6 -13 -13 -10 -8 3 -24 -14 -40 -43 -30 -55 -37 -42
-8 15 33 63 86 102 135 96 11 -1 25 -3 30 -3z m1341 -5 c7 3 15 2 18 -3 3 -4
-6 -9 -19 -9 -16 -1 -24 3 -23 15 0 9 3 11 5 4 3 -7 11 -10 19 -7z m93 -8 c9
-9 12 -9 12 1 0 7 5 9 10 6 6 -4 8 -10 5 -15 -3 -5 0 -18 7 -29 20 -33 -3 -45
-29 -15 -12 13 -18 24 -13 24 5 0 16 -10 24 -22 13 -18 16 -19 16 -5 0 20 -44
52 -59 42 -7 -3 -8 0 -5 9 7 19 16 20 32 4z m-1378 -21 c11 -5 9 -6 -4 -4 -11
1 -21 9 -23 17 -3 10 -2 11 4 4 4 -6 15 -14 23 -17z m754 -3 c3 -8 2 -12 -4
-9 -6 3 -20 -6 -33 -21 -19 -22 -25 -24 -30 -12 -3 10 0 15 11 14 10 -1 18 8
20 22 4 25 27 30 36 6z m538 -14 c-9 -10 -20 -16 -24 -13 -11 6 13 30 29 30 9
0 7 -6 -5 -17z m-1542 -2 c0 -11 -22 -10 -40 2 -11 8 -9 9 13 8 15 -1 27 -6
27 -10z m1484 -23 c5 -22 4 -26 -4 -15 -5 8 -10 24 -10 34 0 26 6 18 14 -19z
m-414 -13 c0 -15 -2 -15 -10 -2 -13 20 -13 33 0 25 6 -3 10 -14 10 -23z m503
21 c-18 -7 -16 -33 2 -33 19 0 19 -10 -1 -38 -15 -21 -72 -33 -59 -12 3 6 15
10 25 10 24 0 31 22 11 36 -13 10 -13 14 -2 28 7 9 19 16 25 15 7 0 6 -2 -1
-6z m935 -44 c-3 -33 -4 -33 -8 8 -3 23 -2 39 3 34 5 -5 7 -24 5 -42z m-2538
21 c0 -5 -2 -10 -4 -10 -3 0 -8 5 -11 10 -3 6 -1 10 4 10 6 0 11 -4 11 -10z
m27 -15 c0 -8 -4 -12 -9 -9 -4 3 -8 9 -8 15 0 5 4 9 8 9 5 0 9 -7 9 -15z m243
6 c0 -5 3 -17 7 -27 5 -14 2 -13 -15 4 -26 26 -27 32 -7 32 8 0 15 -4 15 -9z
m1388 -43 c-3 -56 -5 -58 -79 -72 -22 -5 -25 -10 -22 -38 3 -27 1 -29 -6 -13
-5 11 -10 29 -10 41 -1 11 -9 28 -20 38 -25 23 -22 59 6 61 12 1 20 -2 17 -7
-4 -5 -12 -7 -20 -4 -21 8 -17 -11 7 -27 15 -11 17 -16 7 -20 -7 -3 5 -6 26
-6 49 -1 86 30 86 71 0 15 2 28 5 28 3 0 4 -24 3 -52z m-628 -19 c-6 -10 -19
-23 -30 -29 -24 -13 -63 -13 -55 0 3 6 17 10 30 10 26 0 45 25 46 62 l0 23 10
-23 c6 -15 5 -30 -1 -43z m84 38 c4 4 4 0 0 -10 -3 -9 -10 -17 -16 -17 -5 0
-6 5 -3 10 8 13 -1 13 -28 -1 l-22 -12 20 20 c12 13 24 17 31 12 6 -5 14 -6
18 -2z m-180 -38 c-9 -10 -22 -19 -28 -19 -6 0 0 7 12 16 12 8 22 23 23 32 0
11 2 13 6 4 3 -7 -3 -22 -13 -33z m745 -33 c-9 -8 -10 -7 -5 7 3 10 7 31 8 45
1 22 2 21 5 -7 3 -19 -1 -38 -8 -45z m-1656 12 c-3 -29 -9 -57 -13 -61 -7 -8
-7 1 5 76 9 56 15 45 8 -15z m229 29 c4 -6 7 -21 6 -32 -1 -18 -1 -18 -5 1 -9
49 -121 26 -143 -29 -5 -12 -9 -16 -9 -9 -1 20 30 62 57 76 29 15 82 12 94 -7z
m673 13 c-3 -5 -14 -10 -23 -9 -14 0 -13 2 3 9 27 11 27 11 20 0z m80 -9 c-3
-6 -11 -11 -17 -11 -6 0 -6 6 2 15 14 17 26 13 15 -4z m-495 -6 c-7 -8 -17
-15 -23 -15 -6 0 -2 7 9 15 25 19 30 19 14 0z m35 -7 c-3 -8 -12 -15 -20 -15
-13 0 -12 4 2 19 18 20 26 19 18 -4z m1975 2 c0 -5 -5 -12 -10 -15 -6 -4 -8
-11 -5 -16 9 -14 -2 -11 -19 7 -22 22 -20 29 9 30 14 1 25 -2 25 -6z m-1470
-16 c0 -8 -5 -12 -10 -9 -6 4 -8 11 -5 16 9 14 15 11 15 -7z m555 6 c-3 -5
-14 -10 -23 -9 -14 0 -13 2 3 9 27 11 27 11 20 0z m-1371 -15 c-4 -8 -8 -15
-10 -15 -2 0 -4 7 -4 15 0 8 4 15 10 15 5 0 7 -7 4 -15z m2446 -1 c0 -2 -9 -4
-21 -4 -11 0 -18 4 -14 10 5 8 35 3 35 -6z m-2389 -17 c-10 -9 -11 -8 -5 6 3
10 9 15 12 12 3 -3 0 -11 -7 -18z m219 -2 c-7 -8 -18 -15 -24 -15 -6 0 -2 7 8
15 25 19 32 19 16 0z m-57 -21 c-7 -19 -10 -18 -16 5 -3 13 -1 18 9 14 7 -2
10 -11 7 -19z m581 10 c3 -8 2 -12 -4 -9 -6 3 -10 10 -10 16 0 14 7 11 14 -7z
m496 -33 c0 -11 -6 -9 -19 9 -11 13 -17 29 -14 34 8 11 33 -22 33 -43z m130
14 c0 -7 3 -21 7 -31 4 -12 3 -15 -5 -10 -8 5 -12 0 -12 -13 0 -12 5 -21 10
-21 6 0 10 -5 10 -12 0 -9 -3 -9 -11 -1 -8 8 -23 7 -55 -4 -50 -17 -58 -26
-16 -18 15 3 20 2 12 -1 -31 -13 -50 -38 -44 -56 3 -10 1 -18 -5 -18 -18 0
-20 16 -6 43 8 15 14 30 13 33 0 3 5 18 12 35 11 26 14 28 25 12 11 -15 14
-14 30 10 11 17 15 36 11 52 -5 19 -3 23 9 19 8 -4 15 -12 15 -19z m-1228 -10
c3 -14 2 -25 -2 -25 -4 0 -10 11 -12 25 -3 14 -2 25 2 25 4 0 10 -11 12 -25z
m-197 -3 c-3 -3 -11 0 -18 7 -9 10 -8 11 6 5 10 -3 15 -9 12 -12z m1386 6 c2
-23 -3 -43 -13 -53 -7 -7 -8 -3 -4 12 4 12 2 24 -4 28 -15 9 -12 25 5 25 8 0
16 -6 16 -12z m769 -2 c0 -2 -7 -7 -16 -10 -8 -3 -12 -2 -9 4 6 10 25 14 25 6z
m-1447 -33 c-7 -2 -13 -9 -13 -14 0 -6 4 -8 9 -5 18 12 54 -43 53 -80 -2 -54
-9 -52 -17 5 -4 28 -13 52 -21 55 -7 3 -13 0 -11 -6 1 -7 -10 -18 -25 -25 -21
-10 -28 -22 -28 -42 0 -17 -11 -38 -30 -56 -16 -15 -26 -33 -23 -39 4 -6 -1
-5 -10 3 -16 13 -16 15 5 25 43 22 64 100 33 126 -8 7 -15 17 -15 23 0 5 9 0
19 -12 25 -28 65 -21 56 10 -7 22 1 39 18 38 9 0 9 -2 0 -6z m116 -53 l-1 -35
-8 30 c-4 17 -8 39 -9 50 -1 16 1 17 9 5 5 -8 9 -31 9 -50z m18 -12 c-2 -13
-4 -3 -4 22 0 25 2 35 4 23 2 -13 2 -33 0 -45z m650 -10 c-3 -8 -6 -5 -6 6 -1
11 2 17 5 13 3 -3 4 -12 1 -19z m583 8 c0 -7 -6 -19 -13 -25 -10 -8 -14 -7
-14 4 0 8 4 15 9 15 5 0 6 5 3 10 -3 6 -1 10 4 10 6 0 11 -6 11 -14z m73 2
c50 9 65 -68 21 -115 -23 -26 -24 -26 -11 -3 23 39 30 70 18 84 -15 18 -61 8
-62 -13 -1 -14 -2 -13 -6 1 -4 15 -8 16 -25 7 -19 -10 -18 -9 3 20 12 17 27
27 33 23 6 -3 19 -5 29 -4z m-1529 -6 c2 -4 -4 -8 -15 -8 -10 0 -19 4 -19 8 0
4 6 8 14 8 8 0 17 -4 20 -8z m646 -12 c-24 -15 -36 -11 -14 4 10 8 21 12 24
10 2 -3 -2 -9 -10 -14z m170 10 c-8 -5 -19 -10 -25 -10 -5 0 -3 5 5 10 8 5 20
10 25 10 6 0 3 -5 -5 -10z m-206 -26 c3 -8 2 -12 -4 -9 -6 3 -10 10 -10 16 0
14 7 11 14 -7z m265 -18 c-3 -3 -11 5 -18 17 -13 21 -12 21 5 5 10 -10 16 -20
13 -22z m-208 6 c-7 -12 -6 -26 2 -42 18 -36 36 -36 43 -1 8 37 23 51 62 57
19 3 34 -1 43 -12 12 -15 12 -16 -9 -10 -42 14 -69 -1 -93 -51 -13 -27 -24
-52 -25 -58 0 -5 -2 -16 -2 -22 -3 -18 -19 -16 -19 2 0 8 4 12 8 10 4 -3 6 6
5 20 -1 25 -20 40 -37 29 -5 -3 -9 6 -9 19 0 14 -7 28 -16 31 -13 5 -13 8 -2
19 13 13 35 25 51 26 4 1 3 -7 -2 -17z m465 1 c3 -10 10 -26 15 -35 7 -14 5
-16 -8 -11 -12 5 -15 2 -10 -10 8 -21 -7 -22 -27 -1 -21 21 -20 35 4 41 23 6
26 19 8 26 -10 4 -10 6 0 6 7 1 15 -7 18 -16z m411 -5 c-3 -8 -6 -5 -6 6 -1
11 2 17 5 13 3 -3 4 -12 1 -19z m-1559 -13 c-3 -3 -9 2 -12 12 -6 14 -5 15 5
6 7 -7 10 -15 7 -18z m119 10 c0 -8 -4 -12 -9 -9 -5 3 -6 10 -3 15 9 13 12 11
12 -6z m743 -12 c0 -19 -3 -24 -10 -17 -6 6 -8 18 -4 27 9 24 14 21 14 -10z
m390 -16 c10 -4 8 -6 -7 -6 -25 -1 -56 26 -47 41 4 7 13 3 23 -9 9 -12 23 -23
31 -26z m-175 23 c-3 -5 -10 -10 -16 -10 -5 0 -9 5 -9 10 0 6 7 10 16 10 8 0
12 -4 9 -10z m-1849 -29 c0 -11 -4 -17 -8 -15 -13 8 -9 -11 5 -25 10 -10 9
-11 -5 -6 -25 10 -23 65 2 65 3 0 6 -9 6 -19z m749 9 c-3 -5 -12 -10 -18 -10
-7 0 -6 4 3 10 19 12 23 12 15 0z m1115 -5 c0 -8 -7 -15 -16 -15 -14 0 -14 3
-4 15 7 8 14 15 16 15 2 0 4 -7 4 -15z m-470 -25 c22 0 22 0 25 -53 1 -22 11
-47 23 -60 l21 -22 -37 -3 c-146 -10 -167 -8 -156 9 3 5 -6 9 -19 9 l-25 0 28
30 c28 30 53 43 30 15 -9 -10 -9 -15 -1 -15 6 0 11 -7 11 -15 0 -8 6 -15 13
-16 6 0 29 -2 49 -4 21 -1 36 1 33 5 -3 4 2 13 10 20 17 14 21 35 5 25 -6 -3
-13 1 -16 9 -3 9 -12 16 -20 16 -8 0 -14 5 -14 10 0 15 17 12 35 -7 16 -15 17
-15 13 7 -2 14 -12 27 -23 30 -11 3 -21 14 -23 25 -2 18 -2 18 8 3 6 -10 20
-18 30 -18z m184 4 c7 -17 -3 -44 -16 -44 -5 0 -6 -5 -2 -12 5 -7 2 -9 -9 -5
-17 6 -29 -14 -19 -30 13 -18 40 -22 46 -7 3 9 11 12 17 9 6 -4 8 -13 5 -20
-8 -22 40 -24 53 -3 11 17 12 18 38 1 l27 -18 -39 -5 c-22 -3 -57 -3 -77 1
-22 4 -41 2 -48 -5 -8 -8 -10 -7 -5 5 4 12 -1 18 -19 23 -53 13 -37 96 18 96
15 0 17 3 8 12 -7 7 -12 15 -12 20 0 12 28 -2 34 -18z m216 16 c13 -9 13 -10
0 -10 -8 0 -22 5 -30 10 -13 9 -13 10 0 10 8 0 22 -5 30 -10z m410 -1 c-12 -9
-11 -10 8 -6 12 3 19 1 16 -4 -3 -6 -18 -8 -33 -6 -15 3 -35 -1 -44 -8 -15
-11 -16 -14 -2 -25 8 -7 15 -19 15 -27 0 -16 -39 -33 -59 -25 -8 3 -12 1 -8
-4 3 -5 -2 -10 -12 -10 -10 0 -18 6 -18 12 0 7 7 10 15 6 11 -4 13 -1 7 8 -5
9 -4 11 4 6 6 -4 18 -2 26 4 8 6 19 9 25 5 7 -4 6 2 -2 14 -9 15 -23 21 -53
22 -67 1 -101 6 -121 18 -16 10 -13 11 16 4 54 -12 160 -10 168 3 4 7 16 14
27 17 34 8 41 7 25 -4z m76 -4 c-11 -8 -25 -15 -30 -15 -6 1 0 7 14 15 32 19
40 18 16 0z m-1889 -30 c-7 -13 -14 -20 -15 -14 -2 5 2 16 8 24 18 21 20 18 7
-10z m88 15 c-3 -5 -2 -10 4 -10 5 0 13 5 16 10 3 6 12 10 18 10 7 0 1 -9 -13
-20 -17 -13 -27 -15 -32 -7 -4 6 -10 -1 -14 -17 -4 -17 -9 -23 -14 -16 -4 6
-17 12 -28 13 -12 1 -22 5 -22 10 0 5 9 5 21 2 14 -5 27 0 40 14 21 22 35 28
24 11z m92 4 c-3 -3 -12 -4 -19 -1 -8 3 -5 6 6 6 11 1 17 -2 13 -5z m-687 -14
c0 -5 -5 -10 -11 -10 -5 0 -7 5 -4 10 3 6 8 10 11 10 2 0 4 -4 4 -10z m557 4
c-3 -3 -12 -4 -19 -1 -8 3 -5 6 6 6 11 1 17 -2 13 -5z m154 -23 c13 -10 28
-19 34 -19 5 0 11 -5 13 -10 1 -5 -9 -7 -23 -5 -14 3 -25 11 -25 18 0 15 -35
26 -56 18 -8 -3 -11 -10 -7 -16 3 -5 1 -7 -4 -4 -6 4 -14 0 -17 -9 -5 -12 -1
-14 17 -8 21 6 21 6 -3 -15 -24 -20 -25 -21 -6 -36 15 -12 22 -12 34 -2 13 10
14 8 8 -11 -5 -15 -3 -22 6 -22 10 0 9 -3 -2 -10 -21 -14 -33 -12 -27 3 3 8
-1 14 -9 14 -7 0 -15 -6 -18 -14 -3 -7 -16 -13 -28 -12 -15 0 -18 3 -8 6 18 7
30 23 30 42 0 8 -6 11 -16 7 -8 -3 -12 -2 -9 3 3 6 -3 14 -12 20 -16 9 -16 10
5 11 15 0 22 6 22 19 0 22 35 51 61 51 9 0 27 -8 40 -19z m-518 -34 c5 -34 4
-36 -10 -22 -18 19 -26 14 -28 -18 -2 -28 -45 -38 -45 -10 0 15 2 16 10 3 8
-13 10 -12 10 3 0 9 5 17 10 17 6 0 10 9 10 21 0 11 4 18 9 14 5 -3 13 4 16
16 9 26 11 23 18 -24z m1800 32 c42 -11 51 -29 11 -21 -16 3 -30 -1 -35 -9 -7
-11 -9 -10 -9 4 0 13 -8 17 -32 17 -39 -1 -73 -23 -62 -41 4 -8 3 -10 -4 -5
-22 13 -12 37 21 51 39 17 61 18 110 4z m408 -14 c5 4 9 4 9 1 0 -12 -61 -36
-87 -35 l-28 1 32 9 c18 5 38 19 45 32 11 19 13 20 16 4 2 -9 8 -15 13 -12z
m-2426 6 c-3 -5 -1 -13 5 -16 8 -5 6 -15 -5 -32 -10 -14 -12 -22 -6 -19 7 5 9
1 5 -8 -7 -18 -24 -22 -24 -5 0 6 -7 3 -16 -5 -21 -22 -24 -20 -24 14 0 17 4
30 10 30 5 0 7 -7 4 -15 -5 -11 -2 -13 10 -9 19 7 21 25 4 42 -9 9 -6 14 13
21 31 13 31 13 24 2z m51 -12 c3 -6 2 -15 -4 -21 -6 -6 -11 -2 -15 11 -5 22 7
29 19 10z m561 -11 c-3 -8 -6 -5 -6 6 -1 11 2 17 5 13 3 -3 4 -12 1 -19z
m-347 8 c0 -2 -6 -9 -13 -15 -10 -8 -14 -7 -14 4 0 8 6 15 14 15 7 0 13 -2 13
-4z m1940 0 c0 -2 -9 -6 -20 -9 -11 -3 -18 -1 -14 4 5 9 34 13 34 5z m-1475
-16 c3 -5 -1 -10 -9 -10 -9 0 -16 5 -16 10 0 6 4 10 9 10 6 0 13 -4 16 -10z
m775 -5 c7 -9 9 -19 5 -23 -4 -4 -10 -2 -12 4 -2 6 -16 9 -31 8 -15 -2 -21 -1
-14 2 6 3 10 10 6 15 -9 15 33 10 46 -6z m-1435 -5 c-3 -5 0 -10 7 -10 10 0 9
-3 -2 -9 -20 -13 -34 -2 -19 15 13 16 23 19 14 4z m1982 4 c-3 -3 -12 -4 -19
-1 -8 3 -5 6 6 6 11 1 17 -2 13 -5z m-1500 -10 c-3 -3 -12 -4 -19 -1 -8 3 -5
6 6 6 11 1 17 -2 13 -5z m213 -2 c0 -5 -7 -9 -15 -9 -8 0 -12 4 -9 9 3 4 9 8
15 8 5 0 9 -4 9 -8z m-461 -9 c-18 -3 -26 -10 -24 -21 1 -9 0 -11 -2 -4 -3 7
-9 10 -14 7 -10 -7 -12 8 -2 18 3 4 20 6 37 6 29 -2 29 -2 5 -6z m1481 3 c0
-11 -19 -15 -25 -6 -3 5 1 10 9 10 9 0 16 -2 16 -4z m-1588 -38 c-8 -8 -9 -4
-5 13 4 13 8 18 11 10 2 -7 -1 -18 -6 -23z m-282 2 c-6 -11 -13 -20 -16 -20
-2 0 0 9 6 20 6 11 13 20 16 20 2 0 0 -9 -6 -20z m408 12 c13 12 14 10 3 -9
-6 -13 -16 -23 -21 -23 -6 0 -10 10 -9 23 0 12 3 16 6 9 4 -10 8 -10 21 0z
m-204 -17 c3 -9 0 -15 -9 -15 -9 0 -12 6 -9 15 4 8 7 15 9 15 2 0 5 -7 9 -15z
m279 -5 c3 -11 2 -22 -2 -24 -4 -3 -8 6 -9 20 -2 29 4 31 11 4z m227 -1 c0 -5
-11 -4 -24 1 -13 5 -27 6 -32 2 -4 -4 -4 -2 -1 4 7 13 57 6 57 -7z m-602 -1
c-4 -16 -20 -28 -30 -22 -8 5 12 33 25 34 4 0 6 -6 5 -12z m330 -13 c-3 -3 -9
2 -12 12 -6 14 -5 15 5 6 7 -7 10 -15 7 -18z m1019 19 c-3 -3 -12 -4 -19 -1
-8 3 -5 6 6 6 11 1 17 -2 13 -5z m-904 -17 c3 -7 -3 -13 -14 -13 -13 0 -15 3
-7 13 6 7 12 13 13 13 2 0 5 -6 8 -13z m-508 -7 c13 -6 15 -9 5 -9 -8 0 -22 4
-30 9 -18 12 -2 12 25 0z m100 -8 c-3 -3 -11 0 -18 7 -9 10 -8 11 6 5 10 -3
15 -9 12 -12z m122 2 c-3 -3 -12 -4 -19 -1 -8 3 -5 6 6 6 11 1 17 -2 13 -5z"/>
<path d="M3072 3119 c-16 -26 -15 -49 3 -49 8 0 15 3 16 8 0 4 2 17 3 30 4 30
-7 36 -22 11z"/>
<path d="M2950 3006 c0 -2 7 -9 15 -16 9 -7 15 -8 15 -2 0 5 -7 12 -15 16 -8
3 -15 4 -15 2z"/>
<path d="M3015 2752 c-14 -14 -2 -32 20 -32 13 0 29 -8 34 -17 9 -16 12 -16
21 -3 5 8 10 24 10 35 -1 19 -1 19 -14 2 -12 -16 -14 -16 -20 -2 -4 11 -2 14
7 9 6 -4 8 -3 4 2 -9 9 -54 14 -62 6z"/>
<path d="M3031 2484 c0 -11 3 -14 6 -6 3 7 2 16 -1 19 -3 4 -6 -2 -5 -13z"/>
<path d="M3040 2425 c0 -15 6 -25 14 -25 23 0 25 13 4 33 -17 16 -18 16 -18
-8z"/>
<path d="M2981 2334 c0 -11 3 -14 6 -6 3 7 2 16 -1 19 -3 4 -6 -2 -5 -13z"/>
<path d="M3050 1991 c0 -5 9 -11 21 -14 14 -4 18 -10 14 -19 -6 -10 -5 -11 5
-1 12 11 11 15 -6 28 -22 17 -34 19 -34 6z"/>
<path d="M3026 1958 c-3 -13 -5 -39 -5 -58 1 -27 3 -22 9 20 9 58 7 77 -4 38z"/>
<path d="M1643 3146 c-4 -5 -1 -6 5 -2 7 4 12 2 12 -3 0 -6 -4 -11 -9 -11 -19
0 -19 -28 0 -33 13 -4 30 4 49 23 17 16 30 31 30 33 0 7 -82 1 -87 -7z"/>
<path d="M2810 2991 c0 -6 4 -13 10 -16 6 -3 7 1 4 9 -7 18 -14 21 -14 7z"/>
<path d="M1570 2790 c-9 -17 -8 -20 9 -20 16 0 31 18 31 36 0 13 -31 1 -40
-16z"/>
<path d="M1550 2681 c0 -6 7 -8 15 -5 9 4 15 0 15 -10 0 -9 4 -16 9 -16 12 0
36 30 25 31 -5 0 -21 3 -36 5 -16 3 -28 0 -28 -5z"/>
<path d="M3936 2895 c24 -39 24 -40 24 -28 0 6 -9 21 -21 34 l-20 24 17 -30z"/>
<path d="M4000 2797 c0 -8 6 -20 14 -26 12 -10 13 -8 9 9 -7 25 -23 37 -23 17z"/>
<path d="M4001 2740 c-1 -8 8 -21 19 -28 17 -10 20 -10 20 3 0 8 -6 15 -14 15
-8 0 -17 6 -19 13 -4 8 -6 7 -6 -3z"/>
<path d="M4083 2535 c-3 -9 -3 -18 -1 -21 3 -3 8 4 11 16 6 23 -1 27 -10 5z"/>
<path d="M4085 2148 c-4 -18 -11 -35 -15 -38 -4 -3 -2 -10 5 -17 10 -9 14 -2
19 34 7 55 1 69 -9 21z"/>
<path d="M4025 1960 c3 -5 8 -10 11 -10 2 0 4 5 4 10 0 6 -5 10 -11 10 -5 0
-7 -4 -4 -10z"/>
<path d="M3879 1945 c-13 -24 -3 -60 21 -72 14 -7 24 -18 22 -25 -2 -7 3 -7
13 2 10 8 31 13 48 12 28 -2 29 0 13 9 -13 8 -25 8 -41 1 -18 -8 -26 -8 -35 3
-9 11 -6 14 12 17 21 3 21 4 -9 18 -18 8 -34 21 -35 30 -2 8 -6 11 -9 5z"/>
<path d="M4001 1834 c0 -11 3 -14 6 -6 3 7 2 16 -1 19 -3 4 -6 -2 -5 -13z"/>
<path d="M3037 1675 c7 -19 30 -26 30 -10 0 8 -8 16 -18 18 -11 3 -16 0 -12
-8z"/>
<path d="M3605 1580 c-3 -5 -2 -10 4 -10 5 0 13 5 16 10 3 6 2 10 -4 10 -5 0
-13 -4 -16 -10z"/>
<path d="M3528 1563 c6 -2 18 -2 25 0 6 3 1 5 -13 5 -14 0 -19 -2 -12 -5z"/>
<path d="M1602 1878 c2 -7 -4 -12 -14 -10 -16 2 -20 -20 -5 -34 9 -9 -22 -38
-44 -41 -23 -3 -25 12 -4 21 23 8 19 46 -5 46 -12 0 -20 -7 -20 -16 0 -14 2
-15 17 -3 14 12 16 12 12 0 -8 -24 -28 -24 -37 0 -6 16 -11 19 -16 10 -5 -7 0
-21 10 -32 21 -23 17 -23 -28 -5 -33 14 -34 14 -36 -10 -1 -15 3 -24 13 -24 8
0 15 -9 15 -20 0 -10 9 -24 20 -30 15 -8 20 -8 20 2 0 10 2 10 9 -1 5 -7 25
-15 46 -16 20 -1 31 1 25 5 -13 8 13 23 42 24 18 1 38 16 21 16 -17 0 -9 31
10 42 23 12 21 21 -8 35 -16 7 -23 7 -18 1 4 -7 1 -8 -6 -3 -7 4 -11 16 -8 26
3 10 1 22 -4 25 -5 3 -8 0 -7 -8z"/>
<path d="M1630 1869 c0 -5 5 -7 10 -4 6 3 10 8 10 11 0 2 -4 4 -10 4 -5 0 -10
-5 -10 -11z"/>
<path d="M1260 1696 c0 -8 4 -17 9 -20 5 -4 7 3 4 14 -6 23 -13 26 -13 6z"/>
<path d="M2020 2459 c0 -5 5 -7 10 -4 6 3 10 8 10 11 0 2 -4 4 -10 4 -5 0 -10
-5 -10 -11z"/>
<path d="M2905 2170 c-4 -6 -5 -10 -3 -11 25 -6 38 -6 38 1 0 12 -29 20 -35
10z"/>
<path d="M2441 2204 c0 -11 3 -14 6 -6 3 7 2 16 -1 19 -3 4 -6 -2 -5 -13z"/>
<path d="M2471 2044 c0 -11 3 -14 6 -6 3 7 2 16 -1 19 -3 4 -6 -2 -5 -13z"/>
<path d="M2377 1934 c-10 -10 5 -34 22 -34 14 0 14 2 1 10 -13 9 -13 11 0 20
13 8 13 10 -1 10 -9 0 -18 -3 -22 -6z"/>
<path d="M2432 1910 c-8 -13 -8 -20 -2 -20 6 0 13 7 17 15 9 24 -1 27 -15 5z"/>
<path d="M2383 1865 c7 -13 14 -20 15 -14 5 14 -6 39 -17 39 -5 0 -4 -11 2
-25z"/>
<path d="M2410 1850 c0 -16 4 -30 8 -30 5 0 7 14 4 30 -2 17 -6 30 -8 30 -2 0
-4 -13 -4 -30z"/>
<path d="M1303 2154 c-7 -18 14 -35 36 -31 8 1 16 9 18 17 4 12 3 12 -5 2 -7
-11 -10 -9 -15 7 -6 25 -25 28 -34 5z"/>
<path d="M2760 1570 c-13 -8 -12 -10 3 -10 9 0 17 5 17 10 0 12 -1 12 -20 0z"/>
</g>
</svg>
